<svg xmlns="http://www.w3.org/2000/svg" version="1.1" xmlns:xlink="http://www.w3.org/1999/xlink" xmlns:svgjs="http://svgjs.dev/svgjs" width="1000" height="1764" viewBox="0 0 1000 1764"><g transform="matrix(1,0,0,1,0.706165749689319,0.7141700404857829)"><svg viewBox="0 0 140 247" data-background-color="#19284c" preserveAspectRatio="xMidYMid meet" height="1764" width="1000" xmlns="http://www.w3.org/2000/svg" xmlns:xlink="http://www.w3.org/1999/xlink"><g id="tight-bounds" transform="matrix(1,0,0,1,-0.09886320495650125,-0.09999999999999432)"><svg viewBox="0 0 140.19771428571428 247.2" height="247.2" width="140.19771428571428"><g><svg viewBox="0 0 140.19771428571428 247.2" height="247.2" width="140.19771428571428"><g><svg viewBox="0 0 140.19771428571428 247.2" height="247.2" width="140.19771428571428"><g><svg viewBox="0 0 140.19771428571428 247.2" height="247.2" width="140.19771428571428"><g><svg viewBox="0 0 140.19771428571428 247.2" height="247.2" width="140.19771428571428"><g id="textblocktransform"><svg viewBox="0 0 140.19771428571428 247.2" height="247.2" width="140.19771428571428" id="textblock"><g><svg viewBox="0 0 140.19771428571428 247.2" height="247.2" width="140.19771428571428"><g transform="matrix(1,0,0,1,0,0)"><svg width="140.19771428571428" viewBox="4.949999809265137 -35 19.849998474121094 35" height="247.2" data-palette-color="#ffffff"><path d="M8.85 0L8.85-1.5 22.65-1.5 16.6-18.1 19.4-19.7Q22.85-21.6 22.85-25.75L22.85-25.75Q22.85-33.5 11.05-33.5L11.05-33.5 6.45-33.5 6.45 0 4.95 0 4.95-35 11.05-35Q17.65-35 21-32.58 24.35-30.15 24.35-25.75L24.35-25.75Q24.35-20.75 20.15-18.4L20.15-18.4 18.45-17.45 24.8 0 8.85 0Z" opacity="1" transform="matrix(1,0,0,1,0,0)" fill="#ffffff" class="wordmark-text-0" data-fill-palette-color="primary" id="text-0"></path></svg></g></svg></g></svg></g></svg></g></svg></g></svg></g></svg></g><defs></defs></svg><rect width="140.19771428571428" height="247.2" fill="none" stroke="none" visibility="hidden"></rect></g></svg></g></svg>