<svg width="38" height="39" viewBox="0 0 38 39" fill="none" xmlns="http://www.w3.org/2000/svg">
<path fill-rule="evenodd" clip-rule="evenodd" d="M32.0648 13.8287H30.3392C27.9252 13.8287 29.2602 16.5248 31.2628 20.5693C31.2897 20.6236 31.3167 20.6782 31.3439 20.733C35.6158 29.323 26.3868 38.0538 17.4353 38.0139C7.17969 37.974 3.56673 30.086 5.43311 20.733C6.86357 14.5228 9.31917 8.59438 12.699 3.19156L13.0605 2.5894C13.5845 1.80505 14.2911 1.15963 15.1196 0.708601C15.948 0.25757 16.8736 0.0144069 17.8168 0C18.2498 0.00152491 18.681 0.0555139 19.101 0.160786C17.2817 3.23431 15.6546 6.4176 14.2291 9.69237C8.1875 23.8016 11.0375 31.1074 18.1626 31.1074C23.9025 31.1074 27.5554 26.7725 26.3511 22.4775C25.9689 21.1381 25.6588 20.1495 25.3941 19.3054C25.0163 18.1005 24.7308 17.1902 24.4595 15.9746C23.5368 11.9612 25.9244 10.3755 30.7218 10.3755H32.4284L32.6092 8.64989L37.4254 12.101L31.8862 15.5532L32.0648 13.8287ZM21.251 24.8961C21.9514 24.262 22.3998 23.3966 22.5139 22.4587C22.5754 22.0217 22.5408 21.5766 22.4125 21.1544C22.2841 20.7322 22.0651 20.3431 21.7708 20.0144C21.4765 19.6856 21.1139 19.4251 20.7084 19.251C20.3029 19.0769 19.8643 18.9935 19.4232 19.0065C18.4786 19.0269 17.573 19.3872 16.8725 20.0213C16.172 20.6554 15.7236 21.5207 15.6095 22.4587C15.551 22.8951 15.5877 23.3391 15.7171 23.76C15.8466 24.1809 16.0657 24.5688 16.3595 24.8969C16.6532 25.225 17.0146 25.4855 17.4186 25.6606C17.8227 25.8356 18.26 25.921 18.7002 25.9109C19.6448 25.8905 20.5505 25.5302 21.251 24.8961Z" fill="white"/>
</svg>
